<?xml version="1.0" encoding="UTF-8" standalone="no"?>
<!-- Created with Inkscape (http://www.inkscape.org/) -->

<svg
   width="171.25133mm"
   height="57.3405mm"
   viewBox="0 0 171.25133 57.3405"
   version="1.1"
   id="svg5"
   inkscape:version="1.2.2 (b0a8486541, 2022-12-01)"
   sodipodi:docname="logo_formidi.svg"
   xml:space="preserve"
   inkscape:export-filename="logo_formidi.png"
   inkscape:export-xdpi="189.84962"
   inkscape:export-ydpi="189.84962"
   xmlns:inkscape="http://www.inkscape.org/namespaces/inkscape"
   xmlns:sodipodi="http://sodipodi.sourceforge.net/DTD/sodipodi-0.dtd"
   xmlns="http://www.w3.org/2000/svg"
   xmlns:svg="http://www.w3.org/2000/svg"
   xmlns:rdf="http://www.w3.org/1999/02/22-rdf-syntax-ns#"
   xmlns:cc="http://creativecommons.org/ns#"
   xmlns:dc="http://purl.org/dc/elements/1.1/"><title
     id="title4081">ForMIDI logo</title><sodipodi:namedview
     id="namedview7"
     pagecolor="#ffffff"
     bordercolor="#666666"
     borderopacity="1.0"
     inkscape:pageshadow="2"
     inkscape:pageopacity="0.0"
     inkscape:pagecheckerboard="0"
     inkscape:document-units="mm"
     showgrid="false"
     inkscape:zoom="1.3528978"
     inkscape:cx="374.75115"
     inkscape:cy="202.52823"
     inkscape:window-width="1920"
     inkscape:window-height="1014"
     inkscape:window-x="0"
     inkscape:window-y="0"
     inkscape:window-maximized="1"
     inkscape:current-layer="layer1"
     inkscape:showpageshadow="2"
     inkscape:deskcolor="#d1d1d1" /><defs
     id="defs2"><pattern
       id="diagonalFill"
       width="1.000000"
       height="1.000000"
       patternUnits="userSpaceOnUse"
       patternTransform="rotate(45)"><rect
         x=".000000"
         y=".000000"
         width="4.000000"
         height="1.000000"
         fill="#6d5192"
         id="rect6" /></pattern></defs><g
     inkscape:label="Calque 1"
     inkscape:groupmode="layer"
     id="layer1"
     transform="translate(-13.844634,-85.610884)"><text
       xml:space="preserve"
       style="font-style:normal;font-variant:normal;font-weight:normal;font-stretch:normal;font-size:45.7631px;line-height:125%;font-family:'Standard Symbols PS';-inkscape-font-specification:'Standard Symbols PS, Normal';font-variant-ligatures:normal;font-variant-caps:normal;font-variant-numeric:normal;font-variant-east-asian:normal;letter-spacing:0px;word-spacing:0px;fill:#734f96;fill-opacity:1;stroke:none;stroke-width:1.14407px;stroke-linecap:butt;stroke-linejoin:miter;stroke-opacity:1"
       x="24.576134"
       y="129.93388"
       id="text29192"><tspan
         sodipodi:role="line"
         id="tspan29190"
         x="24.576134"
         y="129.93388"
         style="stroke-width:1.14407px"><tspan
           style="font-style:normal;font-variant:normal;font-weight:normal;font-stretch:normal;font-size:63.5px;font-family:'Standard Symbols PS';-inkscape-font-specification:'Standard Symbols PS, Normal';font-variant-ligatures:normal;font-variant-caps:normal;font-variant-numeric:normal;font-variant-east-asian:normal;fill:#734f96;fill-opacity:1;stroke-width:1.14407px"
           id="tspan29186">𝆑 </tspan><tspan
           style="font-style:oblique;font-variant:normal;font-weight:normal;font-stretch:semi-condensed;font-size:45.7631px;font-family:'DejaVu Sans';-inkscape-font-specification:'DejaVu Sans, Oblique Semi-Condensed';font-variant-ligatures:normal;font-variant-caps:normal;font-variant-numeric:normal;font-variant-east-asian:normal;fill:#734f96;fill-opacity:1;stroke-width:1.14407px"
           id="tspan29188">r <tspan
   style="font-style:normal;font-variant:normal;font-weight:normal;font-stretch:normal;font-size:45.7631px;font-family:'DejaVu Sans';-inkscape-font-specification:'DejaVu Sans, Normal';font-variant-ligatures:normal;font-variant-caps:normal;font-variant-numeric:normal;font-variant-east-asian:normal"
   id="tspan449">MIDI</tspan></tspan></tspan></text><g
       id="g310"
       transform="matrix(0.57930444,0,0,-0.00824056,-23.288431,298.89234)"
       style="opacity:0.199063;fill:none;fill-opacity:1;stroke:#4f9672;stroke-opacity:1" /><g
       id="g494"
       transform="matrix(0.06343003,0,0,0.06343003,40.145501,103.14924)"
       style="stroke:#734f96;stroke-width:19.4397;stroke-dasharray:none;stroke-opacity:1"><path
         d="m 19.197,217.218 c 0,109.631 88.876,198.503 198.499,198.503 109.626,0 198.5,-88.872 198.5,-198.503 0,-109.624 -88.872,-198.503 -198.5,-198.503 -109.623,0 -198.499,88.879 -198.499,198.503 z"
         style="fill:#ffffff;stroke:#734f96;stroke-width:19.4397;stroke-dasharray:none;stroke-opacity:1"
         id="path4678" /><path
         d="m 298.979,217.215 c 0,13.893 11.262,25.148 25.15,25.148 13.895,0 25.149,-11.258 25.149,-25.148 0,-13.883 -11.257,-25.146 -25.149,-25.146 -13.89,0.001 -25.15,11.263 -25.15,25.146 z"
         style="fill:none;stroke:#734f96;stroke-width:19.4397;stroke-dasharray:none;stroke-opacity:1"
         id="path4680" /><path
         d="m 86.112,217.215 c 0,13.893 11.262,25.148 25.151,25.148 13.894,0 25.151,-11.258 25.151,-25.148 0,-13.883 -11.257,-25.146 -25.151,-25.146 -13.889,0.001 -25.151,11.263 -25.151,25.146 z"
         style="fill:none;stroke:#734f96;stroke-width:19.4397;stroke-dasharray:none;stroke-opacity:1"
         id="path4682" /><path
         d="m 124.657,124.185 c -9.82,9.82 -9.82,25.746 0.005,35.566 9.821,9.826 25.74,9.826 35.566,0 9.814,-9.815 9.82,-25.741 -0.005,-35.561 -9.821,-9.825 -25.746,-9.825 -35.566,-0.005 z"
         style="fill:none;stroke:#734f96;stroke-width:19.4397;stroke-dasharray:none;stroke-opacity:1"
         id="path4684" /><path
         d="m 217.696,85.657 c -13.888,0 -25.15,11.262 -25.145,25.15 -0.005,13.894 11.251,25.151 25.148,25.151 13.877,0 25.143,-11.257 25.143,-25.151 0,-13.888 -11.257,-25.15 -25.146,-25.15 z"
         style="fill:none;stroke:#734f96;stroke-width:19.4397;stroke-dasharray:none;stroke-opacity:1"
         id="path4686" /><path
         d="m 310.726,124.202 c -9.814,-9.821 -25.745,-9.821 -35.562,0.005 -9.831,9.82 -9.831,25.739 -0.005,35.565 9.815,9.815 25.74,9.821 35.562,-0.005 9.825,-9.821 9.825,-25.746 0.005,-35.565 z"
         style="fill:none;stroke:#734f96;stroke-width:19.4397;stroke-dasharray:none;stroke-opacity:1"
         id="path4688" /><path
         d="m 217.699,35.339 c -100.448,0 -181.883,81.436 -181.883,181.879 0,87.806 62.234,161.079 144.996,178.125 2.492,-18.166 18.038,-32.176 36.89,-32.176 18.838,0 34.386,14.015 36.875,32.182 C 337.342,378.297 399.576,305.024 399.576,217.218 399.574,116.775 318.146,35.339 217.699,35.339 Z"
         style="fill:none;stroke:#734f96;stroke-width:19.4397;stroke-dasharray:none;stroke-opacity:1"
         id="path4690" /></g></g><metadata
     id="metadata4079"><rdf:RDF><cc:Work
         rdf:about=""><cc:license
           rdf:resource="http://creativecommons.org/licenses/by-sa/4.0/" /><dc:creator><cc:Agent><dc:title>Vincent MAGNIN</dc:title></cc:Agent></dc:creator><dc:date>2024-06-04</dc:date><dc:title>ForMIDI logo</dc:title></cc:Work><cc:License
         rdf:about="http://creativecommons.org/licenses/by-sa/4.0/"><cc:permits
           rdf:resource="http://creativecommons.org/ns#Reproduction" /><cc:permits
           rdf:resource="http://creativecommons.org/ns#Distribution" /><cc:requires
           rdf:resource="http://creativecommons.org/ns#Notice" /><cc:requires
           rdf:resource="http://creativecommons.org/ns#Attribution" /><cc:permits
           rdf:resource="http://creativecommons.org/ns#DerivativeWorks" /><cc:requires
           rdf:resource="http://creativecommons.org/ns#ShareAlike" /></cc:License></rdf:RDF></metadata></svg>
